<?xml version="1.0" encoding="UTF-8"?>
<!-- Created with Inkscape (http://www.inkscape.org/) -->
<svg id="svg3383" height="393.32" version="1.0" xmlns:dc="http://purl.org/dc/elements/1.1/" xmlns="http://www.w3.org/2000/svg" xmlns:xlink="http://www.w3.org/1999/xlink" width="1039.2" xmlns:rdf="http://www.w3.org/1999/02/22-rdf-syntax-ns#" xmlns:cc="http://creativecommons.org/ns#">
 <metadata id="metadata3388">
  <rdf:RDF>
   <cc:Work rdf:about="">
    <dc:format>image/svg+xml</dc:format>
    <dc:type rdf:resource="http://purl.org/dc/dcmitype/StillImage"/>
   </cc:Work>
  </rdf:RDF>
 </metadata>
 <g id="layer1" transform="translate(484.66 12.381)">
  <path id="path2276" fill="#fff" d="m1430.3-228.03v-2.79 2.79z" fill-opacity=".75688"/>
  <rect id="rect4744" x="1491.3" opacity="0" height="664" stroke-width=".01" width="400" y="-165.06"/>
  <rect id="weeksColumn" transform="scale(-1,1)" x="-91.337" height="106" width="18" fill="#fff" y="148.94" fill-opacity=".11765"/>
  <path id="red" fill="#d08ad2" d="m180.68 193.44c-0.76686 0.0804-1.3479 0.72897-1.3438 1.5v18c0.00006 0.82839 0.67161 1.4999 1.5 1.5h18c0.82837-0.00008 1.4999-0.67161 1.5-1.5v-18c-0.00011-0.82839-0.67161-1.4999-1.5-1.5h-18c-0.0521-0.003-0.1042-0.003-0.15625 0zm0.15625 1.5h18v18h-18v-18z"/>
  <path id="selected" fill="#f4a55b" d="m132.68 194.44c-0.76686 0.0804-1.3479 0.72897-1.3438 1.5v18c0.00006 0.82839 0.67161 1.4999 1.5 1.5h18c0.82837-0.00008 1.4999-0.67161 1.5-1.5v-18c-0.00011-0.82839-0.67161-1.4999-1.5-1.5h-18c-0.0521-0.003-0.1042-0.003-0.15625 0zm0.15625 1.5h18v18h-18v-18z"/>
  <path id="green" fill="#12bcfa" d="m156.68 193.94c-0.76686 0.0804-1.3479 0.72897-1.3438 1.5v18c0.00006 0.82839 0.67161 1.4999 1.5 1.5h18c0.82837-0.00008 1.4999-0.67161 1.5-1.5v-18c-0.00011-0.82839-0.67161-1.4999-1.5-1.5h-18c-0.0521-0.003-0.1042-0.003-0.15625 0zm0.15625 1.5h18v18h-18v-18z"/>
  <text id="text4565" xml:space="preserve" transform="translate(-484.66 -12.381)" font-size="12px" y="504.62503" fill="#0f0f0f" font-family="Bitstream Vera Sans" x="757.1076"><tspan id="tspan4567"/></text>
  <path id="today" fill="#53c242" d="m204.68 193.44c-0.77 0.08-1.35 0.73-1.34 1.5v18c0 0.83 0.67 1.5 1.5 1.5h18c0.83 0 1.5-0.67 1.5-1.5v-18c0-0.83-0.67-1.5-1.5-1.5h-18-0.16zm0.16 1.5h18v18h-18v-18z" fill-opacity=".82353"/>
  <rect id="active" fill="#fff" x="168.3" height="18" width="18" y="136.94" fill-opacity=".17647"/>
  <rect id="inactive" fill="#fff" x="120.3" height="18" width="18" y="134.94" fill-opacity=".11765"/>
  <rect id="hoverHighlight" fill="#fff" x="211.34" height="18" width="18" y="136.94" fill-opacity=".27451"/>
 </g>
</svg>
