<?xml version="1.0" encoding="UTF-8" standalone="no"?>
<!-- Created with Inkscape (http://www.inkscape.org/) -->

<svg
   xmlns:osb="http://www.openswatchbook.org/uri/2009/osb"
   xmlns:dc="http://purl.org/dc/elements/1.1/"
   xmlns:cc="http://creativecommons.org/ns#"
   xmlns:rdf="http://www.w3.org/1999/02/22-rdf-syntax-ns#"
   xmlns:svg="http://www.w3.org/2000/svg"
   xmlns="http://www.w3.org/2000/svg"
   xmlns:xlink="http://www.w3.org/1999/xlink"
   xmlns:sodipodi="http://sodipodi.sourceforge.net/DTD/sodipodi-0.dtd"
   xmlns:inkscape="http://www.inkscape.org/namespaces/inkscape"
   id="svg3025"
   version="1.1"
   height="82.856003"
   width="119.13"
   inkscape:version="0.91+devel r"
   sodipodi:docname="slider.svg"
   viewBox="0 0 119.13 82.856003">
  <defs
     id="defs43">
    <linearGradient
       id="linearGradient4318"
       osb:paint="solid">
      <stop
         style="stop-color:#12bcfa;stop-opacity:1;"
         offset="0"
         id="stop4316" />
    </linearGradient>
    <linearGradient
       id="linearGradient4312"
       osb:paint="solid">
      <stop
         style="stop-color:#12bcfa;stop-opacity:1;"
         offset="0"
         id="stop4310" />
    </linearGradient>
    <linearGradient
       id="linearGradient4306"
       osb:paint="solid">
      <stop
         style="stop-color:#5dbc33;stop-opacity:1;"
         offset="0"
         id="stop4304" />
    </linearGradient>
    <linearGradient
       inkscape:collect="always"
       xlink:href="#linearGradient4306"
       id="linearGradient4308"
       x1="79"
       y1="11.4"
       x2="82"
       y2="11.4"
       gradientUnits="userSpaceOnUse" />
    <linearGradient
       inkscape:collect="always"
       xlink:href="#linearGradient4306"
       id="linearGradient4314"
       x1="79"
       y1="7.4000001"
       x2="82"
       y2="7.4000001"
       gradientUnits="userSpaceOnUse" />
    <linearGradient
       inkscape:collect="always"
       xlink:href="#linearGradient4306"
       id="linearGradient4320"
       x1="79"
       y1="15.4"
       x2="82"
       y2="15.4"
       gradientUnits="userSpaceOnUse" />
  </defs>
  <sodipodi:namedview
     pagecolor="#ffffff"
     bordercolor="#666666"
     borderopacity="1"
     objecttolerance="10"
     gridtolerance="10"
     guidetolerance="10"
     inkscape:pageopacity="0"
     inkscape:pageshadow="2"
     inkscape:window-width="640"
     inkscape:window-height="480"
     inkscape:document-units="px"
     id="namedview41"
     showgrid="false"
     inkscape:zoom="9.8127272"
     inkscape:cx="59.5655"
     inkscape:cy="41.405991"
     inkscape:current-layer="svg3025" />
  <metadata
     id="metadata3030">
    <rdf:RDF>
      <cc:Work
         rdf:about="">
        <dc:format>image/svg+xml</dc:format>
        <dc:type
           rdf:resource="http://purl.org/dc/dcmitype/StillImage" />
        <dc:title></dc:title>
      </cc:Work>
    </rdf:RDF>
  </metadata>
  <path
     style="fill-opacity:0.17254998"
     inkscape:connector-curvature="0"
     d="m 65,9.9 h 3 v 3 h -3 z"
     id="groove-center" />
  <path
     style="fill-opacity:0.17254998"
     inkscape:connector-curvature="0"
     d="m 68,5.9 h -3 v 3 h 3 z"
     id="groove-top" />
  <path
     style="fill-opacity:0.17254998"
     inkscape:connector-curvature="0"
     d="m 72,8.9 c 0,-1.662 -1.338,-3 -3,-3 v 3 z"
     id="groove-topright" />
  <path
     style="fill-opacity:0.17254998"
     inkscape:connector-curvature="0"
     d="m 72,12.9 v -3 h -3 v 3 z"
     id="groove-right" />
  <path
     style="fill-opacity:0.17254998"
     inkscape:connector-curvature="0"
     d="m 69,16.9 c 1.662,0 3,-1.338 3,-3 h -3 z"
     id="groove-bottomright" />
  <path
     style="fill-opacity:0.17254998"
     inkscape:connector-curvature="0"
     d="m 65,16.9 h 3 v -3 h -3 z"
     id="groove-bottom" />
  <path
     style="fill-opacity:0.17254998"
     inkscape:connector-curvature="0"
     d="m 61,13.9 c 0,1.662 1.338,3 3,3 v -3 z"
     id="groove-bottomleft" />
  <path
     style="fill-opacity:0.17254998"
     inkscape:connector-curvature="0"
     d="m 61,9.9 v 3 h 3 v -3 z"
     id="groove-left" />
  <path
     style="fill-opacity:0.17254998"
     inkscape:connector-curvature="0"
     d="m 64,5.9 c -1.662,0 -3,1.338 -3,3 h 3 z"
     id="groove-topleft" />
  <path
     style="fill:url(#linearGradient4308);fill-opacity:1"
     inkscape:connector-curvature="0"
     d="m 79,9.9 h 3 v 3 h -3 z"
     id="groove-highlight-center" />
  <path
     style="fill:url(#linearGradient4314);fill-opacity:1.0"
     inkscape:connector-curvature="0"
     d="m 82,5.9 h -3 v 3 h 3 z"
     id="groove-highlight-top" />
  <path
     style="fill:#12bcfa"
     inkscape:connector-curvature="0"
     d="m 86,8.9 c 0,-1.662 -1.338,-3 -3,-3 v 3 z"
     id="groove-highlight-topright" />
  <path
     style="fill:#12bcfa"
     inkscape:connector-curvature="0"
     d="m 86,12.9 v -3 h -3 v 3 z"
     id="groove-highlight-right" />
  <path
     style="fill:#12bcfa"
     inkscape:connector-curvature="0"
     d="m 83,16.9 c 1.662,0 3,-1.338 3,-3 h -3 z"
     id="groove-highlight-bottomright" />
  <path
     style="fill:url(#linearGradient4320);fill-opacity:1.0"
     inkscape:connector-curvature="0"
     d="m 79,16.9 h 3 v -3 h -3 z"
     id="groove-highlight-bottom" />
  <path
     style="fill:#12bcfa"
     inkscape:connector-curvature="0"
     d="m 75,13.844 c 0,1.662 1.338,3 3,3 v -3 z"
     id="groove-highlight-bottomleft" />
  <path
     style="fill:#12bcfa"
     inkscape:connector-curvature="0"
     d="m 75,9.9 v 3 h 3 v -3 z"
     id="groove-highlight-left" />
  <path
     style="fill:#12bcfa"
     inkscape:connector-curvature="0"
     d="m 78,5.9 c -1.662,0 -3,1.338 -3,3 h 3 z"
     id="groove-highlight-topleft" />
  <g
     style="fill-opacity:0"
     transform="translate(0,-1003.5)"
     id="g3409">
    <ellipse
       ry="8.5"
       cx="12"
       rx="9"
       transform="matrix(1.2222,0,0,1.2941,-2.6667,1025.5)"
       cy="11.5"
       id="path4489" />
    <rect
       x="0"
       height="24"
       ry="1.994"
       y="1028.4"
       width="24"
       id="rect4491" />
  </g>
  <g
     style="fill-opacity:0"
     transform="translate(0,-969.5)"
     id="g4247">
    <ellipse
       ry="8.5"
       cx="12"
       rx="9"
       transform="matrix(1.2222,0,0,1.2941,-2.6667,1025.5)"
       cy="11.5"
       id="path4495" />
    <rect
       x="0"
       height="24"
       ry="1.994"
       y="1028.4"
       width="24"
       id="rect4497" />
  </g>
  <rect
     x="33"
     height="3"
     ry="3"
     rx="0"
     y="2.9000244"
     width="3"
     id="hint-tile-center" />
  <path
     style="fill:none"
     inkscape:connector-curvature="0"
     d="m 107.131,0 c -6.6274,0 -12,5.3726 -12,12 0,6.6274 5.3726,12 12,12 6.6274,0 12,-5.3726 12,-12 0,-6.6274 -5.3726,-12 -12,-12 z m 0,2.4 c 5.3019,0 9.6,4.2981 9.6,9.6 0,5.3019 -4.2981,9.6 -9.6,9.6 -5.3019,0 -9.6,-4.2981 -9.6,-9.6 0,-5.3019 4.2981,-9.6 9.6,-9.6 z"
     id="horizontal-slider-shadow" />
  <g
     transform="translate(27,-1101.5)"
     id="horizontal-slider-handle">
    <g
       id="g4254">
      <circle
         style="fill:#a23be0;fill-opacity:1"
         cx="12"
         r="8"
         cy="1168.4"
         id="circle4239" />
      <path
         style="fill:#a4a4a4"
         inkscape:connector-curvature="0"
         d="m 12,1159.4 a 9,9 0 0 0 -9,9 9,9 0 0 0 9,9 9,9 0 0 0 9,-9 9,9 0 0 0 -9,-9 z m 0,1 a 8,8 0 0 1 8,8 8,8 0 0 1 -8,8 8,8 0 0 1 -8,-8 8,8 0 0 1 8,-8 z"
         id="path4225" />
    </g>
    <rect
       style="fill-opacity:0"
       x="0"
       height="24"
       y="1156.4"
       width="24"
       id="rect4259" />
  </g>
  <g
     transform="translate(27,-1131.5)"
     id="vertical-slider-handle">
    <g
       id="g4270">
      <circle
         style="fill:#f4f4f4"
         cx="12"
         r="8"
         cy="1168.4"
         id="circle4276" />
      <path
         style="fill:#a4a4a4"
         inkscape:connector-curvature="0"
         d="m 12,1159.4 a 9,9 0 0 0 -9,9 9,9 0 0 0 9,9 9,9 0 0 0 9,-9 9,9 0 0 0 -9,-9 z m 0,1 a 8,8 0 0 1 8,8 8,8 0 0 1 -8,8 8,8 0 0 1 -8,-8 8,8 0 0 1 8,-8 z"
         id="path4272" />
    </g>
    <rect
       style="fill-opacity:0"
       x="0"
       height="24"
       y="1156.4"
       width="24"
       id="rect4278" />
  </g>
</svg>
