<?xml version="1.0" encoding="UTF-8" standalone="no"?>
<svg
   width="32"
   height="32"
   version="1.1"
   id="svg58"
   sodipodi:docname="audio.svg"
   inkscape:version="1.2.2 (b0a8486541, 2022-12-01)"
   xmlns:inkscape="http://www.inkscape.org/namespaces/inkscape"
   xmlns:sodipodi="http://sodipodi.sourceforge.net/DTD/sodipodi-0.dtd"
   xmlns="http://www.w3.org/2000/svg"
   xmlns:svg="http://www.w3.org/2000/svg">
  <defs
     id="defs62" />
  <sodipodi:namedview
     id="namedview60"
     pagecolor="#ffffff"
     bordercolor="#000000"
     borderopacity="0.25"
     inkscape:showpageshadow="2"
     inkscape:pageopacity="0.0"
     inkscape:pagecheckerboard="0"
     inkscape:deskcolor="#d1d1d1"
     showgrid="false"
     inkscape:zoom="26.03125"
     inkscape:cx="19.572629"
     inkscape:cy="15.654262"
     inkscape:window-width="1920"
     inkscape:window-height="1036"
     inkscape:window-x="0"
     inkscape:window-y="44"
     inkscape:window-maximized="1"
     inkscape:current-layer="audio-volume-muted" />
  <g
     id="audio-volume-muted">
    <path
       style="opacity:0.001"
       d="M -6.8179997e-7,-4.5e-6 H 32 c 0,0 0,0 0,0 V 31.999996 c 0,0 0,0 0,0 H -6.8179997e-7 c 0,0 0,0 0,0 V -4.5e-6 c 0,0 0,0 0,0 z"
       id="path34" />
    <path
       style="color:#dfdfdf;opacity:1;fill:#dedede;fill-opacity:1;stroke-width:1.54137"
       class="ColorScheme-Text"
       d="M 5.7413738,3.5660785 3.5109777,5.6725632 8.5376186,10.376692 7.279923,11.564516 H 2.5217459 v 8.987666 H 7.279923 l 7.930295,7.489724 V 16.67859 l 3.172117,2.99589 v 2.375647 c 0,0 0.749496,-0.251159 1.648016,-0.819189 l 2.159147,2.039194 c -1.115562,0.767113 -2.391231,1.381604 -3.807163,1.775886 v 2.995888 c 2.225608,-0.481121 4.277027,-1.425164 6.003484,-2.697469 l 3.465362,3.206182 2.230397,-2.106486 -3.415801,-3.182777 -2.193221,-2.071377 -2.221105,-2.097707 -3.869116,-3.654164 -3.172117,-2.99589 -4.429812,-4.1837137 z m 9.4688442,0.5087129 -2.187026,2.0655249 2.187026,2.0655263 z m 3.172117,0 v 2.9958893 c 4.549422,1.2668266 7.930299,4.5879943 7.930299,8.9876683 0,0.806614 -0.148791,1.562702 -0.362442,2.290802 l 2.444142,2.308355 c 0.692396,-1.419856 1.090417,-2.968472 1.090417,-4.599157 0,-5.820578 -4.925429,-10.6482449 -11.102416,-11.9835576 z m 0,5.9917796 v 1.135161 l 4.733395,4.470428 c -0.267959,-4.187076 -4.733395,-5.605589 -4.733395,-5.605589 z"
       id="path1307"
       sodipodi:nodetypes="cccccccccccccccccccccccccccccccsccsccccc" />
  </g>
  <g
     id="audio-volume-high"
     transform="translate(96.000003)">
    <path
       style="opacity:0.001"
       d="M -6.8179997e-7,-4.5e-6 H 32 c 0,0 0,0 0,0 V 31.999996 c 0,0 0,0 0,0 H -6.8179997e-7 c 0,0 0,0 0,0 V -4.5e-6 c 0,0 0,0 0,0 z"
       id="path53" />
    <path
       style="color:#dfdfdf;fill:#dedede;stroke-width:1.548;stroke-dasharray:none;fill-opacity:1"
       class="ColorScheme-Text"
       d="M 15.198338,4.0416037 7.1817182,11.515598 h -4.809972 v 8.968795 h 4.809972 l 8.0166198,7.473995 z m 3.206645,0 v 2.989598 c 4.598944,1.264166 8.016621,4.5783593 8.016621,8.9687943 0,4.390434 -3.417692,7.704628 -8.016621,8.968794 v 2.989598 c 6.244227,-1.332509 11.22327,-6.150037 11.22327,-11.958392 0,-5.808355 -4.979043,-10.6258843 -11.22327,-11.9583923 z m 0,5.9791943 v 11.958393 c 0,0 4.810294,-1.494798 4.809972,-5.979195 -3.2e-4,-4.484398 -4.809972,-5.979198 -4.809972,-5.979198 z"
       id="path266-7-5" />
  </g>
  <g
     id="audio-volume-low"
     transform="translate(32.000003)">
    <path
       style="opacity:0.00100002"
       d="M -6.8179997e-7,-4.5e-6 H 32 c 0,0 0,0 0,0 V 31.999996 c 0,0 0,0 0,0 H -6.8179997e-7 c 0,0 0,0 0,0 V -4.5e-6 c 0,0 0,0 0,0 z"
       id="path46-6" />
    <path
       style="color:#dfdfdf;fill:#dedede;stroke-width:1.548;stroke-dasharray:none;fill-opacity:1"
       class="ColorScheme-Text"
       d="M 15.198338,4.0416037 7.1817184,11.515598 H 2.3717459 v 8.968795 h 4.8099725 l 8.0166196,7.473995 z m 3.206645,5.9791943 v 11.958393 c 0,0 4.810294,-1.494798 4.809972,-5.979195 -3.2e-4,-4.484398 -4.809972,-5.979198 -4.809972,-5.979198 z"
       id="path266-6"
       sodipodi:nodetypes="cccccccccsc" />
  </g>
  <g
     id="audio-volume-medium"
     transform="translate(64.000006)">
    <path
       style="opacity:0.00100002"
       d="M -6.8179997e-7,-4.5e-6 H 32 c 0,0 0,0 0,0 V 31.999996 c 0,0 0,0 0,0 H -6.8179997e-7 c 0,0 0,0 0,0 V -4.5e-6 c 0,0 0,0 0,0 z"
       id="path53-1" />
    <path
       style="color:#dfdfdf;fill:#dedede;stroke-width:1.548;stroke-dasharray:none;fill-opacity:1"
       class="ColorScheme-Text"
       d="M 15.198338,4.0416037 7.1817182,11.515598 h -4.809972 v 8.968795 h 4.809972 l 8.0166198,7.473995 z m 3.206645,0 v 2.9895981 c 4.598944,1.264166 8.016621,4.5783592 8.016621,8.9687942 0,4.390434 -3.417692,7.704628 -8.016621,8.968794 v 2.989598 c 6.244227,-1.332509 11.22327,-6.150037 11.22327,-11.958392 0,-5.808355 -4.979043,-10.6258843 -11.22327,-11.9583923 z m 0,5.9791943 v 11.958393 c 0,0 4.810294,-1.494798 4.809972,-5.979195 -3.2e-4,-4.484398 -4.809972,-5.979198 -4.809972,-5.979198 z"
       id="path266-7" />
  </g>
</svg>
