<?xml version="1.0" encoding="UTF-8" standalone="no"?>
<svg
   width="32"
   height="32"
   version="1.1"
   id="svg26"
   sodipodi:docname="list.svg"
   inkscape:version="1.2.2 (b0a8486541, 2022-12-01)"
   xmlns:inkscape="http://www.inkscape.org/namespaces/inkscape"
   xmlns:sodipodi="http://sodipodi.sourceforge.net/DTD/sodipodi-0.dtd"
   xmlns="http://www.w3.org/2000/svg"
   xmlns:svg="http://www.w3.org/2000/svg">
  <defs
     id="defs30" />
  <sodipodi:namedview
     id="namedview28"
     pagecolor="#ffffff"
     bordercolor="#000000"
     borderopacity="0.25"
     inkscape:showpageshadow="2"
     inkscape:pageopacity="0.0"
     inkscape:pagecheckerboard="0"
     inkscape:deskcolor="#d1d1d1"
     showgrid="false"
     inkscape:zoom="36.813747"
     inkscape:cx="33.248449"
     inkscape:cy="-10.634614"
     inkscape:window-width="1920"
     inkscape:window-height="1036"
     inkscape:window-x="0"
     inkscape:window-y="44"
     inkscape:window-maximized="1"
     inkscape:current-layer="22-22-list-remove" />
  <g
     id="22-22-list-remove"
     transform="translate(-253,-17)">
    <rect
       style="opacity:0.001"
       width="22"
       height="22"
       x="285"
       y="-5"
       id="rect2" />
    <path
       style="fill:#dedede"
       d="m 35,-13 v 4 c 16,0 0,0 16,0 v -4 c -16,0 0,0 -16,0 z"
       id="path13-6"
       transform="translate(253,17)"
       sodipodi:nodetypes="ccccc" />
  </g>
  <g
     id="22-22-list-add"
     transform="translate(-285.00081,-16.99666)">
    <path
       style="opacity:0.001"
       d="m 285.00081,-5.00334 h 22 v 22 h -22 z"
       id="path11" />
    <path
       style="fill:#dedede"
       transform="translate(285.00081,-5.00334)"
       d="M 9,3 V 9 H 3 v 4 h 6 v 6 h 4 v -6 h 6 V 9 H 13 V 3 Z"
       id="path13" />
  </g>
  <g
     id="list-add"
     transform="translate(3.6590725e-6)">
    <path
       style="opacity:0.001"
       d="M -4.318145e-6,-4.8197e-7 H 31.999997 V 32.000001 H -4.318145e-6 Z"
       id="path16" />
    <path
       style="fill:#dedede"
       d="m 13,4 v 9 H 4.0000001 v 6 H 13 v 9 h 6 v -9 h 9 V 13 H 19 V 4 Z"
       id="path18" />
  </g>
  <g
     id="list-remove"
     transform="translate(32.000003)">
    <rect
       style="opacity:0.001"
       width="32"
       height="32"
       x="0"
       y="0"
       id="rect21" />
    <path
       style="fill:#dedede"
       d="m 4,13 v 6 c 24,0 0,0 24,0 v -6 z"
       id="path18-3"
       sodipodi:nodetypes="ccccc" />
  </g>
</svg>
